<svg width="33" height="34" viewBox="0 0 33 34" fill="none" xmlns="http://www.w3.org/2000/svg">
<rect x="7.75" y="6.25" width="17.5" height="21.5" rx="3.25" stroke="#279653" stroke-width="1.5"/>
<path d="M12.75 15H17C17.1381 15 17.25 15.1119 17.25 15.25C17.25 15.3881 17.1381 15.5 17 15.5H12.75C12.6119 15.5 12.5 15.3881 12.5 15.25C12.5 15.1119 12.6119 15 12.75 15Z" stroke="#279653"/>
<path d="M12.75 11H19.25C19.3881 11 19.5 11.1119 19.5 11.25C19.5 11.3881 19.3881 11.5 19.25 11.5H12.75C12.6119 11.5 12.5 11.3881 12.5 11.25C12.5 11.1119 12.6119 11 12.75 11Z" stroke="#279653"/>
<path d="M12.75 19H18.5C18.6381 19 18.75 19.1119 18.75 19.25C18.75 19.3881 18.6381 19.5 18.5 19.5H12.75C12.6119 19.5 12.5 19.3881 12.5 19.25C12.5 19.1119 12.6119 19 12.75 19Z" stroke="#279653"/>
</svg>
